<?xml version="1.0" encoding="UTF-8" standalone="no"?>
<!DOCTYPE svg PUBLIC "-//W3C//DTD SVG 1.1//EN" "http://www.w3.org/Graphics/SVG/1.1/DTD/svg11.dtd">
<svg width="100%" height="100%" viewBox="0 0 14176 14176" version="1.1" xmlns="http://www.w3.org/2000/svg" xmlns:xlink="http://www.w3.org/1999/xlink" xml:space="preserve" xmlns:serif="http://www.serif.com/" style="fill-rule:evenodd;clip-rule:evenodd;stroke-linecap:round;stroke-linejoin:round;stroke-miterlimit:10;">
    <g transform="matrix(16.6667,0,0,16.6667,0,7083.84)">
        <rect x="0" y="0.166" width="850.394" height="425.197"/>
    </g>
    <g transform="matrix(16.6667,0,0,16.6667,0,-7089.38)">
        <rect x="0" y="425.363" width="850.394" height="425.197" style="fill:white;"/>
    </g>
    <g transform="matrix(16.6667,0,0,16.6667,0,-5296.07)">
        <path d="M287.262,583.043L287.262,578.38L285.82,578.38L285.82,589.944L287.262,589.944L287.262,584.392L292.768,584.392L292.768,589.944L294.209,589.944L294.209,578.38L292.768,578.38L292.768,583.043L287.262,583.043Z" style="fill-rule:nonzero;"/>
    </g>
    <g transform="matrix(16.6667,0,0,16.6667,0,-5291.97)">
        <path d="M308.366,578.134L308.366,585.45C308.366,586.084 308.463,586.674 308.657,587.221C308.851,587.769 309.133,588.247 309.501,588.656C309.869,589.065 310.313,589.381 310.835,589.606C311.356,589.831 311.944,589.944 312.599,589.944C313.253,589.944 313.844,589.831 314.37,589.606C314.897,589.381 315.342,589.067 315.704,588.663C316.067,588.259 316.346,587.781 316.54,587.229C316.735,586.677 316.832,586.084 316.832,585.45L316.832,578.134L315.39,578.134L315.39,584.959C315.39,585.47 315.347,585.938 315.26,586.363C315.173,586.787 315.025,587.168 314.815,587.505C314.605,587.843 314.316,588.108 313.948,588.303C313.58,588.497 313.13,588.594 312.599,588.594C312.067,588.594 311.617,588.497 311.249,588.303C310.881,588.108 310.592,587.843 310.382,587.505C310.173,587.168 310.025,586.787 309.938,586.363C309.851,585.938 309.807,585.47 309.807,584.959L309.807,578.134L308.366,578.134Z" style="fill-rule:nonzero;"/>
    </g>
    <g transform="matrix(16.6667,0,0,16.6667,0,-5296.07)">
        <path d="M332.537,583.395L332.537,578.38L331.095,578.38L331.095,589.944L332.537,589.944L332.537,585.113L333.12,584.561L337.476,589.944L339.423,589.944L334.132,583.58L339.331,578.38L337.445,578.38L332.537,583.395Z" style="fill-rule:nonzero;"/>
    </g>
    <g transform="matrix(16.6667,0,0,16.6667,0,-5291.97)">
        <path d="M352.368,578.134L352.368,585.45C352.368,586.084 352.465,586.674 352.659,587.221C352.854,587.769 353.135,588.247 353.503,588.656C353.871,589.065 354.316,589.381 354.837,589.606C355.359,589.831 355.947,589.944 356.601,589.944C357.255,589.944 357.846,589.831 358.373,589.606C358.899,589.381 359.344,589.067 359.707,588.663C360.07,588.259 360.348,587.781 360.543,587.229C360.737,586.677 360.834,586.084 360.834,585.45L360.834,578.134L359.392,578.134L359.392,584.959C359.392,585.47 359.349,585.938 359.262,586.363C359.175,586.787 359.027,587.168 358.817,587.505C358.608,587.843 358.319,588.108 357.951,588.303C357.583,588.497 357.133,588.594 356.601,588.594C356.069,588.594 355.62,588.497 355.251,588.303C354.883,588.108 354.594,587.843 354.385,587.505C354.175,587.168 354.027,586.787 353.94,586.363C353.853,585.938 353.81,585.47 353.81,584.959L353.81,578.134L352.368,578.134Z" style="fill-rule:nonzero;"/>
    </g>
    <g transform="matrix(16.6667,0,0,16.6667,0,-5296.07)">
        <path d="M376.539,583.395L376.539,578.38L375.098,578.38L375.098,589.944L376.539,589.944L376.539,585.113L377.122,584.561L381.478,589.944L383.426,589.944L378.134,583.58L383.334,578.38L381.447,578.38L376.539,583.395Z" style="fill-rule:nonzero;"/>
    </g>
    <g transform="matrix(16.6667,0,0,16.6667,0,-5296.07)">
        <path d="M414.591,579.669L414.99,579.669C415.368,579.669 415.7,579.694 415.987,579.745C416.273,579.796 416.526,579.888 416.746,580.021C416.966,580.154 417.137,580.348 417.26,580.604C417.382,580.86 417.444,581.182 417.444,581.57C417.444,581.969 417.382,582.296 417.26,582.552C417.137,582.808 416.963,583.004 416.738,583.142C416.513,583.28 416.255,583.375 415.964,583.426C415.672,583.477 415.337,583.503 414.959,583.503L414.591,583.503L414.591,579.669ZM414.591,584.653L415.481,584.653C415.849,584.653 416.199,584.681 416.531,584.737C416.863,584.794 417.175,584.893 417.467,585.037C417.758,585.18 417.991,585.382 418.165,585.642C418.338,585.903 418.425,586.228 418.425,586.616C418.425,587.005 418.349,587.335 418.195,587.606C418.042,587.876 417.837,588.089 417.582,588.242C417.326,588.395 417.04,588.503 416.723,588.564C416.406,588.625 416.063,588.656 415.695,588.656L414.591,588.656L414.591,584.653ZM413.149,589.944L415.849,589.944C416.38,589.944 416.884,589.883 417.359,589.76C417.835,589.638 418.262,589.446 418.64,589.185C419.018,588.925 419.317,588.587 419.537,588.173C419.757,587.759 419.867,587.271 419.867,586.708C419.867,586.371 419.811,586.041 419.698,585.719C419.586,585.397 419.425,585.1 419.215,584.829C419.006,584.559 418.76,584.331 418.479,584.147C418.198,583.963 417.888,583.84 417.551,583.779L417.551,583.748C417.929,583.574 418.231,583.275 418.456,582.851C418.681,582.427 418.793,581.995 418.793,581.555C418.793,580.931 418.681,580.41 418.456,579.991C418.231,579.571 417.922,579.244 417.528,579.009C417.134,578.774 416.69,578.61 416.194,578.518C415.698,578.426 415.153,578.38 414.56,578.38L413.149,578.38L413.149,589.944Z" style="fill-rule:nonzero;"/>
    </g>
    <g transform="matrix(16.6667,0,0,16.6667,0,-5343.35)">
        <path d="M436.17,578.134C435.915,578.134 435.695,578.224 435.511,578.403C435.327,578.582 435.235,578.799 435.235,579.055C435.235,579.31 435.327,579.53 435.511,579.714C435.695,579.898 435.915,579.99 436.17,579.99C436.426,579.99 436.643,579.898 436.822,579.714C437.001,579.53 437.091,579.31 437.091,579.055C437.091,578.799 437.001,578.582 436.822,578.403C436.643,578.224 436.426,578.134 436.17,578.134ZM439.407,578.134C439.151,578.134 438.931,578.224 438.747,578.403C438.563,578.582 438.471,578.799 438.471,579.055C438.471,579.31 438.563,579.53 438.747,579.714C438.931,579.898 439.151,579.99 439.407,579.99C439.662,579.99 439.879,579.898 440.058,579.714C440.237,579.53 440.327,579.31 440.327,579.055C440.327,578.799 440.237,578.582 440.058,578.403C439.879,578.224 439.662,578.134 439.407,578.134ZM433.548,581.217L433.548,588.533C433.548,589.167 433.645,589.757 433.839,590.304C434.033,590.852 434.315,591.33 434.683,591.739C435.051,592.148 435.496,592.464 436.017,592.689C436.538,592.914 437.126,593.027 437.781,593.027C438.435,593.027 439.026,592.914 439.552,592.689C440.079,592.464 440.524,592.15 440.887,591.746C441.25,591.342 441.528,590.864 441.722,590.312C441.917,589.76 442.014,589.167 442.014,588.533L442.014,581.217L440.572,581.217L440.572,588.042C440.572,588.553 440.529,589.021 440.442,589.446C440.355,589.87 440.207,590.251 439.997,590.588C439.787,590.926 439.499,591.191 439.13,591.386C438.762,591.58 438.312,591.677 437.781,591.677C437.249,591.677 436.799,591.58 436.431,591.386C436.063,591.191 435.774,590.926 435.565,590.588C435.355,590.251 435.207,589.87 435.12,589.446C435.033,589.021 434.989,588.553 434.989,588.042L434.989,581.217L433.548,581.217Z" style="fill-rule:nonzero;"/>
    </g>
    <g transform="matrix(16.6667,0,0,16.6667,0,-5296.07)">
        <path d="M459.82,584.914C460.649,584.812 461.318,584.456 461.829,583.848C462.341,583.24 462.596,582.516 462.596,581.678C462.596,581.115 462.461,580.584 462.19,580.083C461.919,579.582 461.548,579.193 461.078,578.917C460.669,578.682 460.227,578.534 459.751,578.472C459.276,578.411 458.701,578.38 458.026,578.38L456.277,578.38L456.277,589.944L457.719,589.944L457.719,585.052L458.317,585.052L461.722,589.944L463.471,589.944L459.82,584.914ZM457.719,579.669L458.103,579.669C458.512,579.669 458.895,579.694 459.253,579.745C459.611,579.796 459.94,579.893 460.242,580.037C460.544,580.18 460.787,580.392 460.971,580.673C461.155,580.954 461.247,581.31 461.247,581.739C461.247,582.179 461.162,582.539 460.994,582.82C460.825,583.102 460.595,583.316 460.303,583.464C460.012,583.613 459.693,583.715 459.345,583.771C458.997,583.827 458.609,583.856 458.179,583.856L457.719,583.856L457.719,579.669Z" style="fill-rule:nonzero;"/>
    </g>
    <g transform="matrix(16.6667,0,0,16.6667,0,-5296.05)">
        <path d="M482.121,578.134C481.303,578.134 480.526,578.29 479.789,578.602C479.053,578.913 478.406,579.348 477.849,579.905C477.292,580.463 476.855,581.109 476.538,581.845C476.221,582.582 476.062,583.354 476.062,584.161C476.062,585 476.218,585.79 476.53,586.531C476.842,587.272 477.277,587.916 477.834,588.463C478.391,589.01 479.038,589.435 479.774,589.736C480.51,590.038 481.292,590.189 482.121,590.189C482.949,590.189 483.731,590.038 484.467,589.736C485.203,589.435 485.85,589.01 486.407,588.463C486.965,587.916 487.399,587.272 487.711,586.531C488.023,585.79 488.179,585 488.179,584.161C488.179,583.354 488.02,582.582 487.703,581.845C487.386,581.109 486.949,580.463 486.392,579.905C485.835,579.348 485.188,578.913 484.452,578.602C483.716,578.29 482.939,578.134 482.121,578.134ZM482.121,588.839C481.497,588.839 480.906,588.722 480.349,588.486C479.792,588.251 479.299,587.919 478.869,587.489C478.44,587.06 478.105,586.559 477.865,585.986C477.624,585.414 477.504,584.805 477.504,584.161C477.504,583.527 477.617,582.927 477.842,582.359C478.066,581.792 478.386,581.291 478.8,580.856C479.214,580.422 479.705,580.084 480.272,579.844C480.84,579.604 481.456,579.483 482.121,579.483C482.785,579.483 483.401,579.604 483.969,579.844C484.536,580.084 485.027,580.422 485.441,580.856C485.855,581.291 486.175,581.792 486.4,582.359C486.625,582.927 486.737,583.527 486.737,584.161C486.737,584.805 486.617,585.414 486.377,585.986C486.136,586.559 485.802,587.06 485.372,587.489C484.943,587.919 484.449,588.251 483.892,588.486C483.335,588.722 482.744,588.839 482.121,588.839Z" style="fill-rule:nonzero;"/>
    </g>
    <g transform="matrix(16.6667,0,0,16.6667,0,-5296.05)">
        <path d="M508.132,579.882C507.815,579.32 507.401,578.888 506.89,578.586C506.379,578.285 505.801,578.134 505.157,578.134C504.717,578.134 504.293,578.203 503.884,578.341C503.475,578.479 503.11,578.678 502.787,578.939C502.465,579.2 502.212,579.517 502.028,579.89C501.844,580.263 501.752,580.675 501.752,581.125C501.752,581.513 501.819,581.858 501.952,582.16C502.084,582.461 502.266,582.727 502.496,582.957C502.726,583.187 502.984,583.387 503.271,583.556C503.557,583.724 503.889,583.89 504.267,584.054L505.065,584.391C505.351,584.514 505.609,584.637 505.84,584.759C506.07,584.882 506.266,585.02 506.43,585.174C506.849,585.552 507.059,586.022 507.059,586.585C507.059,587.198 506.857,587.727 506.453,588.172C506.049,588.617 505.54,588.839 504.927,588.839C504.303,588.839 503.774,588.632 503.34,588.218C502.905,587.804 502.688,587.28 502.688,586.646L501.231,586.953C501.292,587.413 501.425,587.84 501.629,588.233C501.834,588.627 502.095,588.972 502.412,589.269C502.729,589.565 503.092,589.793 503.501,589.951C503.91,590.11 504.344,590.189 504.804,590.189C505.316,590.189 505.796,590.102 506.246,589.928C506.696,589.754 507.09,589.504 507.427,589.177C507.764,588.849 508.028,588.463 508.217,588.019C508.406,587.574 508.501,587.096 508.501,586.585C508.501,586.114 508.432,585.698 508.293,585.335C508.155,584.972 507.959,584.655 507.703,584.384C507.447,584.113 507.148,583.875 506.806,583.671C506.463,583.466 506.072,583.277 505.632,583.103L504.804,582.781C504.344,582.607 503.961,582.39 503.654,582.129C503.347,581.868 503.194,581.534 503.194,581.125C503.194,580.644 503.393,580.25 503.792,579.944C504.191,579.637 504.636,579.483 505.126,579.483C505.556,579.483 505.919,579.573 506.215,579.752C506.512,579.931 506.767,580.204 506.982,580.572L508.132,579.882Z" style="fill-rule:nonzero;"/>
    </g>
    <g transform="matrix(16.6667,0,0,16.6667,0,-5291.97)">
        <path d="M522.151,578.134L522.151,585.45C522.151,586.084 522.248,586.674 522.442,587.221C522.636,587.769 522.917,588.247 523.286,588.656C523.654,589.065 524.098,589.381 524.62,589.606C525.141,589.831 525.729,589.944 526.384,589.944C527.038,589.944 527.629,589.831 528.155,589.606C528.682,589.381 529.126,589.067 529.489,588.663C529.852,588.259 530.131,587.781 530.325,587.229C530.52,586.677 530.617,586.084 530.617,585.45L530.617,578.134L529.175,578.134L529.175,584.959C529.175,585.47 529.132,585.938 529.045,586.363C528.958,586.787 528.81,587.168 528.6,587.505C528.39,587.843 528.101,588.108 527.733,588.303C527.365,588.497 526.915,588.594 526.384,588.594C525.852,588.594 525.402,588.497 525.034,588.303C524.666,588.108 524.377,587.843 524.167,587.505C523.958,587.168 523.81,586.787 523.723,586.363C523.636,585.938 523.592,585.47 523.592,584.959L523.592,578.134L522.151,578.134Z" style="fill-rule:nonzero;"/>
    </g>
    <g transform="matrix(16.6667,0,0,16.6667,0,-7063.38)">
        <path d="M210.683,663.089L173.646,663.089L173.646,662.019L174.882,662.019C175.761,661.964 176.653,661.826 177.559,661.607C178.465,661.387 178.918,660.783 178.918,659.794C178.918,659.52 178.891,659.231 178.836,658.929C178.781,658.627 178.644,658.257 178.424,657.817L171.999,644.307L152.146,644.307L147.944,655.428C147.395,656.856 147.12,658.037 147.12,658.971C147.12,660.234 147.519,661.057 148.315,661.442C149.111,661.826 149.894,662.019 150.663,662.019L153.134,662.019L153.134,663.089L138.388,663.089L138.388,662.019L139.377,662.019C140.311,662.073 141.134,661.744 141.848,661.03C142.562,660.316 143.139,659.437 143.578,658.394L158.077,622.971L158.571,621.818C158.736,621.434 158.901,621.022 159.065,620.582C159.45,619.539 159.642,618.633 159.642,617.864C159.642,616.436 159.134,615.214 158.118,614.198C157.102,613.182 155.715,612.592 153.958,612.427L153.381,612.345L153.381,611.274L164.337,611.274L187.156,658.064C187.65,659.108 188.145,659.904 188.639,660.453C189.133,661.003 189.573,661.401 189.957,661.648C190.341,661.895 190.657,662.019 190.904,662.019L192.807,662.019C193.356,662.019 193.946,661.936 194.578,661.771C195.21,661.607 195.786,661.318 196.308,660.906C196.83,660.495 197.269,659.973 197.626,659.341C197.983,658.71 198.161,657.927 198.161,656.993L198.161,615.969C198.161,615.42 197.983,614.926 197.626,614.486C197.269,614.047 196.83,613.663 196.308,613.333C195.786,613.004 195.21,612.757 194.578,612.592C193.946,612.427 193.356,612.345 192.807,612.345L192.807,611.274L214.39,611.274C218.015,611.274 221.131,611.727 223.74,612.633C226.348,613.539 228.49,614.734 230.165,616.216C231.84,617.699 233.062,619.388 233.831,621.283C234.6,623.177 234.984,625.113 234.984,627.09C234.984,629.012 234.559,630.921 233.707,632.816C232.856,634.71 231.621,636.399 230,637.882C228.38,639.365 226.417,640.559 224.11,641.465C221.804,642.371 219.195,642.824 216.285,642.824L205.328,642.824L205.328,657.57C205.328,658.339 205.521,658.998 205.905,659.547C206.289,660.096 206.742,660.563 207.264,660.948C207.786,661.332 208.363,661.607 208.994,661.771C209.626,661.936 210.189,662.019 210.683,662.019L210.683,663.089ZM171.175,642.495L161.042,621.159L152.887,642.495L171.175,642.495ZM215.708,641.095C218.234,641.095 220.321,640.641 221.969,639.735C223.616,638.829 224.907,637.676 225.84,636.275C226.774,634.875 227.406,633.365 227.735,631.745C228.065,630.125 228.202,628.601 228.147,627.173C228.092,625.141 227.859,623.26 227.447,621.53C227.035,619.8 226.321,618.29 225.305,616.999C224.289,615.708 222.902,614.706 221.145,613.992C219.387,613.278 217.136,612.921 214.39,612.921L209.2,612.921C208.266,612.921 207.539,613.017 207.017,613.21C206.495,613.402 206.111,613.649 205.864,613.951C205.617,614.253 205.466,614.596 205.411,614.981C205.356,615.365 205.328,615.777 205.328,616.216L205.328,641.095L215.708,641.095Z"/>
    </g>
    <g transform="matrix(16.6667,0,0,16.6667,0,-7063.38)">
        <path d="M280.78,663.089L235.082,663.089L235.082,662.019C235.632,662.019 236.222,661.936 236.854,661.771C237.485,661.607 238.062,661.318 238.583,660.906C239.105,660.495 239.545,659.973 239.901,659.341C240.258,658.71 240.437,657.927 240.437,656.993L240.437,616.875C240.437,615.283 239.847,614.13 238.666,613.416C237.485,612.702 236.291,612.345 235.082,612.345L235.082,611.274L252.958,611.274L252.958,612.345C251.531,612.345 250.295,612.674 249.251,613.333C248.208,613.992 247.686,615.173 247.686,616.875L247.604,656.829C247.604,657.872 247.81,658.888 248.222,659.877C248.634,660.865 249.251,661.36 250.075,661.36L256.418,661.36C260.043,661.36 262.954,661.085 265.15,660.536C267.347,659.987 269.104,659.094 270.423,657.858C271.312,657.025 272.051,656.022 272.674,654.851L285.723,622.971L286.217,621.818C286.382,621.434 286.547,621.022 286.711,620.582C287.096,619.539 287.288,618.633 287.288,617.864C287.288,616.436 286.78,615.214 285.764,614.198C284.748,613.182 283.361,612.592 281.604,612.427L281.027,612.345L281.027,611.274L291.984,611.274L314.802,658.064C315.297,659.108 315.791,659.904 316.285,660.453C316.779,661.003 317.219,661.401 317.603,661.648C317.988,661.895 318.303,662.019 318.551,662.019L320.404,662.019L320.404,663.089L301.292,663.089L301.292,662.019L302.528,662.019C303.407,661.964 304.299,661.826 305.205,661.607C306.111,661.387 306.565,660.783 306.565,659.794C306.565,659.52 306.537,659.231 306.482,658.929C306.427,658.627 306.29,658.257 306.07,657.817L299.645,644.307L279.792,644.307L275.59,655.428C275.041,656.856 274.767,658.037 274.767,658.971C274.767,660.234 275.165,661.057 275.961,661.442C276.757,661.826 277.54,662.019 278.309,662.019L280.78,662.019L280.78,663.089ZM298.821,642.495L288.689,621.159L280.533,642.495L298.821,642.495Z"/>
    </g>
    <g transform="matrix(16.6667,0,0,16.6667,0,-7063.38)">
        <path d="M326.323,619.347L327.229,650.321C327.339,654.605 328.218,657.625 329.865,659.382C331.513,661.14 333.792,662.019 336.703,662.019L336.703,663.089L319.156,663.089L319.156,662.019C320.364,662.019 321.326,661.813 322.04,661.401C322.753,660.989 323.289,660.316 323.646,659.382C324.003,658.449 324.236,657.241 324.346,655.758C324.456,654.275 324.511,652.463 324.511,650.321L324.511,616.875L322.699,614.404C322.369,613.965 321.888,613.512 321.257,613.045C320.625,612.578 319.843,612.345 318.909,612.345L318.909,611.274L329.948,611.274L364.876,650.65L364.052,627.008C363.942,624.042 363.709,621.612 363.352,619.717C362.995,617.823 362.473,616.326 361.787,615.228C361.1,614.13 360.249,613.374 359.233,612.962C358.217,612.551 356.995,612.345 355.567,612.345L355.567,611.274L373.114,611.274L373.114,612.262C371.796,612.262 370.725,612.468 369.901,612.88C369.077,613.292 368.446,614.061 368.006,615.187C367.567,616.313 367.279,617.823 367.141,619.717C367.004,621.612 366.935,624.042 366.935,627.008L366.935,663.089L365.947,663.089L326.323,619.347Z" style="fill-rule:nonzero;"/>
    </g>
    <g transform="matrix(16.6667,0,0,16.6667,0,-7063.38)">
        <path d="M105.416,656.911C105.416,657.79 105.608,658.545 105.992,659.177C106.377,659.808 106.83,660.33 107.351,660.742C107.873,661.154 108.45,661.469 109.081,661.689C109.713,661.909 110.276,662.019 110.77,662.019L110.77,663.089L92.894,663.089L92.894,662.019C93.443,662.019 94.034,661.922 94.665,661.73C95.297,661.538 95.873,661.236 96.395,660.824C96.917,660.412 97.356,659.877 97.713,659.218C98.07,658.559 98.249,657.735 98.249,656.746L98.249,615.805C98.249,615.255 98.07,614.775 97.713,614.363C97.356,613.951 96.917,613.594 96.395,613.292C95.873,612.99 95.297,612.757 94.665,612.592C94.034,612.427 93.443,612.345 92.894,612.345L92.894,611.274L110.77,611.274L110.77,612.345C110.276,612.345 109.713,612.441 109.081,612.633C108.45,612.825 107.873,613.086 107.351,613.416C106.83,613.745 106.377,614.13 105.992,614.569C105.608,615.008 105.416,615.475 105.416,615.969L105.416,641.259L125.186,620.253C126.34,618.99 127.328,617.809 128.152,616.711C128.976,615.612 129.387,614.679 129.387,613.91C129.387,612.866 128.509,612.345 126.751,612.345L125.763,612.345L125.763,611.274L139.438,611.274L139.438,612.345L138.861,612.345C137.927,612.235 137.035,612.454 136.184,613.004C135.332,613.553 134.522,614.212 133.754,614.981L116.125,633.104L130.458,653.534C131.172,654.522 131.996,655.524 132.93,656.54C133.863,657.556 134.852,658.49 135.895,659.341C136.939,660.192 137.955,660.893 138.943,661.442C139.932,661.991 140.838,662.266 141.662,662.266L141.744,663.089L133.589,663.089C133.04,663.089 132.422,663.048 131.735,662.966C131.049,662.884 130.376,662.746 129.717,662.554C129.058,662.362 128.426,662.073 127.822,661.689C127.218,661.305 126.696,660.81 126.257,660.206L111.1,638.294L105.416,644.143L105.416,656.911Z" style="fill-rule:nonzero;"/>
    </g>
    <g transform="matrix(16.6667,0,0,16.6667,0,-7062)">
        <path d="M463.621,661.029L482.362,661.029C482.774,661.029 483.199,661.002 483.639,660.947C485.78,660.563 487.51,659.945 488.828,659.094C490.147,658.242 491.259,657.171 492.165,655.881C493.071,654.59 493.826,653.052 494.43,651.268C495.034,649.483 495.666,647.437 496.325,645.13L497.313,645.13L495.583,663.089L466.916,663.089L466.916,663.006L454.971,663.006L454.971,661.688C457.552,657.954 460.243,654.068 463.044,650.032C465.845,645.995 468.687,641.904 471.57,637.758C474.454,633.611 477.35,629.451 480.261,625.277C483.172,621.104 486.028,617.04 488.828,613.085L473.094,613.085C470.239,613.085 467.904,613.47 466.092,614.239C464.28,615.008 462.797,616.092 461.644,617.493C460.49,618.893 459.557,620.582 458.843,622.559C458.129,624.536 457.442,626.733 456.783,629.149L455.795,629.149L457.525,611.191L497.313,611.191L497.313,612.262L463.621,661.029Z" style="fill-rule:nonzero;"/>
    </g>
    <g transform="matrix(16.6667,0,0,16.6667,0,-7062)">
        <path d="M599.247,659.876C596.721,652.847 594.36,647.67 592.163,644.348C589.966,641.025 587.55,639.364 584.914,639.364L576.84,639.364L576.84,655.84C576.84,656.718 577.033,657.542 577.417,658.311C577.802,659.08 578.255,659.725 578.776,660.247C579.298,660.769 579.875,661.18 580.506,661.482C581.138,661.785 581.701,661.936 582.195,661.936L582.195,663.006L564.319,663.006L564.319,661.936C564.868,661.936 565.459,661.798 566.09,661.524C566.722,661.249 567.298,660.851 567.82,660.329C568.342,659.807 568.781,659.176 569.138,658.434C569.495,657.693 569.674,656.828 569.674,655.84L569.674,616.463C569.674,615.914 569.495,615.392 569.138,614.898C568.781,614.403 568.342,613.964 567.82,613.58C567.298,613.195 566.722,612.879 566.09,612.632C565.459,612.385 564.868,612.262 564.319,612.262L564.319,611.191L589.856,611.191C592.987,611.191 595.746,611.589 598.135,612.385C600.524,613.182 602.515,614.239 604.108,615.557C605.7,616.875 606.895,618.371 607.691,620.046C608.487,621.721 608.858,623.438 608.803,625.195C608.693,629.698 607.018,633.007 603.778,635.122C600.538,637.236 596.172,638.43 590.68,638.705C592.877,639.089 594.716,639.625 596.199,640.311C597.682,640.998 598.973,641.959 600.071,643.195C601.169,644.43 602.199,645.995 603.16,647.89C604.121,649.785 605.151,652.133 606.249,654.933C606.524,655.647 606.826,656.416 607.156,657.24C607.485,658.064 607.883,658.833 608.35,659.547C608.817,660.261 609.393,660.851 610.08,661.318C610.766,661.785 611.631,662.045 612.675,662.1L612.675,663.089L606.249,663.089C605.7,663.089 605.055,663.02 604.314,662.883C603.572,662.746 602.858,662.54 602.172,662.265C601.485,661.99 600.867,661.647 600.318,661.235C599.769,660.823 599.412,660.37 599.247,659.876ZM576.84,637.716L587.961,637.716C592.41,637.716 595.705,636.797 597.847,634.957C599.989,633.117 601.087,629.863 601.142,625.195C601.142,623.657 600.922,622.147 600.483,620.664C600.044,619.181 599.343,617.863 598.382,616.71C597.421,615.557 596.199,614.637 594.716,613.95C593.234,613.264 591.476,612.921 589.444,612.921L579.312,612.921C578.763,612.921 578.323,613.044 577.994,613.291C577.664,613.539 577.417,613.854 577.252,614.239C577.088,614.623 576.978,615.008 576.923,615.392C576.868,615.776 576.84,616.133 576.84,616.463L576.84,637.716Z" style="fill-rule:nonzero;"/>
    </g>
    <g transform="matrix(16.6667,0,0,16.6667,0,-7063.38)">
        <path d="M619.612,662.019C620.161,662.019 620.751,661.936 621.383,661.771C622.014,661.607 622.591,661.318 623.113,660.906C623.634,660.495 624.074,659.973 624.431,659.341C624.788,658.71 624.966,657.927 624.966,656.993L624.966,615.969C624.966,615.42 624.788,614.926 624.431,614.486C624.074,614.047 623.634,613.663 623.113,613.333C622.591,613.004 622.014,612.757 621.383,612.592C620.751,612.427 620.161,612.345 619.612,612.345L619.612,611.274L662.942,611.274L664.755,629.232L663.766,629.232C662.942,626.431 662.16,624.015 661.418,621.983C660.677,619.951 659.647,618.262 658.329,616.917C657.011,615.571 655.268,614.569 653.098,613.91C650.929,613.251 648.032,612.921 644.407,612.921L634.275,612.921C633.616,612.921 633.094,613.292 632.71,614.033C632.325,614.775 632.133,615.448 632.133,616.052L632.133,634.834L642.513,634.834C644.819,634.834 646.563,634.614 647.744,634.175C648.924,633.735 649.803,633.063 650.38,632.157C650.956,631.25 651.341,630.07 651.533,628.614C651.725,627.159 652.014,625.415 652.398,623.383L653.139,623.383L653.963,648.344L653.222,648.344C652.673,646.367 652.261,644.637 651.986,643.154C651.712,641.671 651.258,640.436 650.627,639.447C649.995,638.458 649.075,637.731 647.867,637.264C646.659,636.797 644.874,636.564 642.513,636.564L632.133,636.564L632.133,656.829C632.133,657.872 632.339,658.888 632.751,659.877C633.163,660.865 633.781,661.36 634.604,661.36L644.243,661.36C647.867,661.36 650.778,661.085 652.975,660.536C655.171,659.987 656.929,659.094 658.247,657.858C659.565,656.623 660.608,655.016 661.377,653.039C662.146,651.062 662.942,648.701 663.766,645.955L664.755,645.955L662.942,663.089L619.612,663.089L619.612,662.019Z" style="fill-rule:nonzero;"/>
    </g>
    <g transform="matrix(16.6667,0,0,16.6667,0,-7062)">
        <path d="M710.792,659.876C708.266,652.847 705.905,647.67 703.708,644.348C701.511,641.025 699.095,639.364 696.459,639.364L688.386,639.364L688.386,655.84C688.386,656.718 688.578,657.542 688.962,658.311C689.347,659.08 689.8,659.725 690.321,660.247C690.843,660.769 691.42,661.18 692.051,661.482C692.683,661.785 693.246,661.936 693.74,661.936L693.74,663.006L675.864,663.006L675.864,661.936C676.413,661.936 677.004,661.798 677.635,661.524C678.267,661.249 678.843,660.851 679.365,660.329C679.887,659.807 680.326,659.176 680.683,658.434C681.04,657.693 681.219,656.828 681.219,655.84L681.219,616.463C681.219,615.914 681.04,615.392 680.683,614.898C680.326,614.403 679.887,613.964 679.365,613.58C678.843,613.195 678.267,612.879 677.635,612.632C677.004,612.385 676.413,612.262 675.864,612.262L675.864,611.191L701.401,611.191C704.532,611.191 707.291,611.589 709.68,612.385C712.069,613.182 714.06,614.239 715.653,615.557C717.245,616.875 718.44,618.371 719.236,620.046C720.032,621.721 720.403,623.438 720.348,625.195C720.238,629.698 718.563,633.007 715.323,635.122C712.083,637.236 707.717,638.43 702.225,638.705C704.422,639.089 706.262,639.625 707.744,640.311C709.227,640.998 710.518,641.959 711.616,643.195C712.715,644.43 713.744,645.995 714.705,647.89C715.666,649.785 716.696,652.133 717.795,654.933C718.069,655.647 718.371,656.416 718.701,657.24C719.03,658.064 719.428,658.833 719.895,659.547C720.362,660.261 720.939,660.851 721.625,661.318C722.312,661.785 723.177,662.045 724.22,662.1L724.22,663.089L717.795,663.089C717.245,663.089 716.6,663.02 715.859,662.883C715.117,662.746 714.403,662.54 713.717,662.265C713.03,661.99 712.412,661.647 711.863,661.235C711.314,660.823 710.957,660.37 710.792,659.876ZM688.386,637.716L699.507,637.716C703.955,637.716 707.25,636.797 709.392,634.957C711.534,633.117 712.632,629.863 712.687,625.195C712.687,623.657 712.467,622.147 712.028,620.664C711.589,619.181 710.888,617.863 709.927,616.71C708.966,615.557 707.744,614.637 706.262,613.95C704.779,613.264 703.021,612.921 700.989,612.921L690.857,612.921C690.308,612.921 689.868,613.044 689.539,613.291C689.209,613.539 688.962,613.854 688.797,614.239C688.633,614.623 688.523,615.008 688.468,615.392C688.413,615.776 688.386,616.133 688.386,616.463L688.386,637.716Z" style="fill-rule:nonzero;"/>
    </g>
    <g transform="matrix(16.6667,0,0,16.6667,0,-7063.38)">
        <path d="M502.117,637.14C502.117,633.131 502.748,629.479 504.011,626.184C505.275,622.889 507.073,620.074 509.407,617.74C511.741,615.406 514.556,613.608 517.851,612.345C521.146,611.082 524.798,610.45 528.807,610.45C532.816,610.45 536.468,611.082 539.763,612.345C543.059,613.608 545.873,615.406 548.207,617.74C550.541,620.074 552.353,622.889 553.644,626.184C554.935,629.479 555.58,633.131 555.58,637.14C555.58,641.149 554.935,644.802 553.644,648.097C552.353,651.392 550.541,654.22 548.207,656.582C545.873,658.943 543.059,660.755 539.763,662.019C536.468,663.282 532.816,663.913 528.807,663.913C524.798,663.913 521.146,663.282 517.851,662.019C514.556,660.755 511.741,658.943 509.407,656.582C507.073,654.22 505.275,651.392 504.011,648.097C502.748,644.802 502.117,641.149 502.117,637.14ZM510.519,637.14C510.519,640.875 510.959,644.28 511.837,647.355C512.716,650.431 513.952,653.053 515.544,655.222C517.137,657.392 519.059,659.067 521.311,660.247C523.562,661.428 526.061,662.019 528.807,662.019C531.553,662.019 534.052,661.428 536.304,660.247C538.555,659.067 540.477,657.392 542.07,655.222C543.663,653.053 544.898,650.431 545.777,647.355C546.656,644.28 547.095,640.875 547.095,637.14C547.095,633.406 546.656,630.015 545.777,626.967C544.898,623.919 543.663,621.31 542.07,619.141C540.477,616.972 538.555,615.297 536.304,614.116C534.052,612.935 531.553,612.345 528.807,612.345C526.061,612.345 523.562,612.935 521.311,614.116C519.059,615.297 517.137,616.972 515.544,619.141C513.952,621.31 512.716,623.919 511.837,626.967C510.959,630.015 510.519,633.406 510.519,637.14Z" style="fill-rule:nonzero;"/>
    </g>
    <g transform="matrix(16.6667,0,0,16.6667,0,0)">
        <text x="379.13px" y="240.189px" style="font-family:'MeshedDisplay-Medium', 'Meshed Display';font-weight:500;font-size:109.714px;fill:rgb(181,181,181);">&amp;</text>
    </g>
    <g transform="matrix(16.6667,0,0,16.6667,0,0)">
        <text x="379.13px" y="656.821px" style="font-family:'MeshedDisplay-Medium', 'Meshed Display';font-weight:500;font-size:109.714px;fill:rgb(119,119,119);">&amp;</text>
    </g>
    <g transform="matrix(16.6667,0,0,16.6667,0,-5868.23)">
        <path d="M75.819,601.327L422.234,601.327" style="fill:none;fill-rule:nonzero;stroke:black;stroke-width:1px;"/>
    </g>
    <g transform="matrix(16.6667,0,0,16.6667,0,-5868.23)">
        <path d="M438.473,601.327L738.222,601.327" style="fill:none;fill-rule:nonzero;stroke:black;stroke-width:1px;"/>
    </g>
    <g transform="matrix(16.6667,0,0,16.6667,0,8591.7)">
        <path d="M287.262,166.41L287.262,161.747L285.82,161.747L285.82,173.311L287.262,173.311L287.262,167.759L292.768,167.759L292.768,173.311L294.209,173.311L294.209,161.747L292.768,161.747L292.768,166.41L287.262,166.41Z" style="fill:white;fill-rule:nonzero;"/>
    </g>
    <g transform="matrix(16.6667,0,0,16.6667,0,8595.8)">
        <path d="M308.366,161.501L308.366,168.817C308.366,169.451 308.463,170.041 308.657,170.588C308.851,171.135 309.133,171.613 309.501,172.022C309.869,172.431 310.313,172.748 310.835,172.973C311.356,173.198 311.944,173.311 312.599,173.311C313.253,173.311 313.844,173.198 314.37,172.973C314.897,172.748 315.342,172.434 315.704,172.03C316.067,171.626 316.346,171.148 316.54,170.596C316.735,170.044 316.832,169.451 316.832,168.817L316.832,161.501L315.39,161.501L315.39,168.326C315.39,168.837 315.347,169.305 315.26,169.729C315.173,170.154 315.025,170.535 314.815,170.872C314.605,171.209 314.316,171.475 313.948,171.67C313.58,171.864 313.13,171.961 312.599,171.961C312.067,171.961 311.617,171.864 311.249,171.67C310.881,171.475 310.592,171.209 310.382,170.872C310.173,170.535 310.025,170.154 309.938,169.729C309.851,169.305 309.807,168.837 309.807,168.326L309.807,161.501L308.366,161.501Z" style="fill:white;fill-rule:nonzero;"/>
    </g>
    <g transform="matrix(16.6667,0,0,16.6667,0,8591.7)">
        <path d="M332.537,166.762L332.537,161.747L331.095,161.747L331.095,173.311L332.537,173.311L332.537,168.48L333.12,167.928L337.476,173.311L339.423,173.311L334.132,166.946L339.331,161.747L337.445,161.747L332.537,166.762Z" style="fill:white;fill-rule:nonzero;"/>
    </g>
    <g transform="matrix(16.6667,0,0,16.6667,0,8595.8)">
        <path d="M352.368,161.501L352.368,168.817C352.368,169.451 352.465,170.041 352.659,170.588C352.854,171.135 353.135,171.613 353.503,172.022C353.871,172.431 354.316,172.748 354.837,172.973C355.359,173.198 355.947,173.311 356.601,173.311C357.255,173.311 357.846,173.198 358.373,172.973C358.899,172.748 359.344,172.434 359.707,172.03C360.07,171.626 360.348,171.148 360.543,170.596C360.737,170.044 360.834,169.451 360.834,168.817L360.834,161.501L359.392,161.501L359.392,168.326C359.392,168.837 359.349,169.305 359.262,169.729C359.175,170.154 359.027,170.535 358.817,170.872C358.608,171.209 358.319,171.475 357.951,171.67C357.583,171.864 357.133,171.961 356.601,171.961C356.069,171.961 355.62,171.864 355.251,171.67C354.883,171.475 354.594,171.209 354.385,170.872C354.175,170.535 354.027,170.154 353.94,169.729C353.853,169.305 353.81,168.837 353.81,168.326L353.81,161.501L352.368,161.501Z" style="fill:white;fill-rule:nonzero;"/>
    </g>
    <g transform="matrix(16.6667,0,0,16.6667,0,8591.7)">
        <path d="M376.539,166.762L376.539,161.747L375.098,161.747L375.098,173.311L376.539,173.311L376.539,168.48L377.122,167.928L381.478,173.311L383.426,173.311L378.134,166.946L383.334,161.747L381.447,161.747L376.539,166.762Z" style="fill:white;fill-rule:nonzero;"/>
    </g>
    <g transform="matrix(16.6667,0,0,16.6667,0,8591.7)">
        <path d="M414.591,163.035L414.99,163.035C415.368,163.035 415.7,163.061 415.987,163.112C416.273,163.163 416.526,163.255 416.746,163.388C416.966,163.521 417.137,163.715 417.26,163.971C417.382,164.227 417.444,164.549 417.444,164.937C417.444,165.336 417.382,165.663 417.26,165.919C417.137,166.174 416.963,166.371 416.738,166.509C416.513,166.647 416.255,166.742 415.964,166.793C415.672,166.844 415.337,166.87 414.959,166.87L414.591,166.87L414.591,163.035ZM414.591,168.02L415.481,168.02C415.849,168.02 416.199,168.048 416.531,168.104C416.863,168.161 417.175,168.26 417.467,168.403C417.758,168.547 417.991,168.748 418.165,169.009C418.338,169.27 418.425,169.595 418.425,169.983C418.425,170.372 418.349,170.701 418.195,170.972C418.042,171.243 417.837,171.455 417.582,171.609C417.326,171.762 417.04,171.87 416.723,171.931C416.406,171.992 416.063,172.023 415.695,172.023L414.591,172.023L414.591,168.02ZM413.149,173.311L415.849,173.311C416.38,173.311 416.884,173.25 417.359,173.127C417.835,173.005 418.262,172.813 418.64,172.552C419.018,172.291 419.317,171.954 419.537,171.54C419.757,171.126 419.867,170.638 419.867,170.075C419.867,169.738 419.811,169.408 419.698,169.086C419.586,168.764 419.425,168.467 419.215,168.196C419.006,167.925 418.76,167.698 418.479,167.514C418.198,167.33 417.888,167.207 417.551,167.146L417.551,167.115C417.929,166.941 418.231,166.642 418.456,166.218C418.681,165.794 418.793,165.362 418.793,164.922C418.793,164.298 418.681,163.777 418.456,163.357C418.231,162.938 417.922,162.611 417.528,162.376C417.134,162.141 416.69,161.977 416.194,161.885C415.698,161.793 415.153,161.747 414.56,161.747L413.149,161.747L413.149,173.311Z" style="fill:white;fill-rule:nonzero;"/>
    </g>
    <g transform="matrix(16.6667,0,0,16.6667,0,8544.42)">
        <path d="M436.17,161.501C435.915,161.501 435.695,161.591 435.511,161.77C435.327,161.949 435.235,162.166 435.235,162.422C435.235,162.677 435.327,162.897 435.511,163.081C435.695,163.265 435.915,163.357 436.17,163.357C436.426,163.357 436.643,163.265 436.822,163.081C437.001,162.897 437.091,162.677 437.091,162.422C437.091,162.166 437.001,161.949 436.822,161.77C436.643,161.591 436.426,161.501 436.17,161.501ZM439.407,161.501C439.151,161.501 438.931,161.591 438.747,161.77C438.563,161.949 438.471,162.166 438.471,162.422C438.471,162.677 438.563,162.897 438.747,163.081C438.931,163.265 439.151,163.357 439.407,163.357C439.662,163.357 439.879,163.265 440.058,163.081C440.237,162.897 440.327,162.677 440.327,162.422C440.327,162.166 440.237,161.949 440.058,161.77C439.879,161.591 439.662,161.501 439.407,161.501ZM433.548,164.584L433.548,171.9C433.548,172.534 433.645,173.124 433.839,173.671C434.033,174.218 434.315,174.696 434.683,175.105C435.051,175.514 435.496,175.831 436.017,176.056C436.538,176.281 437.126,176.394 437.781,176.394C438.435,176.394 439.026,176.281 439.552,176.056C440.079,175.831 440.524,175.517 440.887,175.113C441.25,174.709 441.528,174.231 441.722,173.679C441.917,173.127 442.014,172.534 442.014,171.9L442.014,164.584L440.572,164.584L440.572,171.409C440.572,171.92 440.529,172.388 440.442,172.812C440.355,173.237 440.207,173.618 439.997,173.955C439.787,174.292 439.499,174.558 439.13,174.753C438.762,174.947 438.312,175.044 437.781,175.044C437.249,175.044 436.799,174.947 436.431,174.753C436.063,174.558 435.774,174.292 435.565,173.955C435.355,173.618 435.207,173.237 435.12,172.812C435.033,172.388 434.989,171.92 434.989,171.409L434.989,164.584L433.548,164.584Z" style="fill:white;fill-rule:nonzero;"/>
    </g>
    <g transform="matrix(16.6667,0,0,16.6667,0,8591.7)">
        <path d="M459.82,168.281C460.649,168.178 461.318,167.823 461.829,167.215C462.341,166.606 462.596,165.883 462.596,165.045C462.596,164.482 462.461,163.951 462.19,163.449C461.919,162.948 461.548,162.56 461.078,162.284C460.669,162.049 460.227,161.9 459.751,161.839C459.276,161.778 458.701,161.747 458.026,161.747L456.277,161.747L456.277,173.311L457.719,173.311L457.719,168.419L458.317,168.419L461.722,173.311L463.471,173.311L459.82,168.281ZM457.719,163.035L458.103,163.035C458.512,163.035 458.895,163.061 459.253,163.112C459.611,163.163 459.94,163.26 460.242,163.403C460.544,163.547 460.787,163.759 460.971,164.04C461.155,164.321 461.247,164.676 461.247,165.106C461.247,165.546 461.162,165.906 460.994,166.187C460.825,166.468 460.595,166.683 460.303,166.831C460.012,166.98 459.693,167.082 459.345,167.138C458.997,167.194 458.609,167.222 458.179,167.222L457.719,167.222L457.719,163.035Z" style="fill:white;fill-rule:nonzero;"/>
    </g>
    <g transform="matrix(16.6667,0,0,16.6667,0,8591.72)">
        <path d="M482.121,161.501C481.303,161.501 480.526,161.657 479.789,161.968C479.053,162.28 478.406,162.715 477.849,163.272C477.292,163.829 476.855,164.476 476.538,165.212C476.221,165.948 476.062,166.72 476.062,167.528C476.062,168.367 476.218,169.156 476.53,169.898C476.842,170.639 477.277,171.283 477.834,171.83C478.391,172.377 479.038,172.802 479.774,173.103C480.51,173.405 481.292,173.556 482.121,173.556C482.949,173.556 483.731,173.405 484.467,173.103C485.203,172.802 485.85,172.377 486.407,171.83C486.965,171.283 487.399,170.639 487.711,169.898C488.023,169.156 488.179,168.367 488.179,167.528C488.179,166.72 488.02,165.948 487.703,165.212C487.386,164.476 486.949,163.829 486.392,163.272C485.835,162.715 485.188,162.28 484.452,161.968C483.716,161.657 482.939,161.501 482.121,161.501ZM482.121,172.206C481.497,172.206 480.906,172.088 480.349,171.853C479.792,171.618 479.299,171.286 478.869,170.856C478.44,170.427 478.105,169.926 477.865,169.353C477.624,168.781 477.504,168.172 477.504,167.528C477.504,166.894 477.617,166.294 477.842,165.726C478.066,165.159 478.386,164.658 478.8,164.223C479.214,163.788 479.705,163.451 480.272,163.211C480.84,162.97 481.456,162.85 482.121,162.85C482.785,162.85 483.401,162.97 483.969,163.211C484.536,163.451 485.027,163.788 485.441,164.223C485.855,164.658 486.175,165.159 486.4,165.726C486.625,166.294 486.737,166.894 486.737,167.528C486.737,168.172 486.617,168.781 486.377,169.353C486.136,169.926 485.802,170.427 485.372,170.856C484.943,171.286 484.449,171.618 483.892,171.853C483.335,172.088 482.744,172.206 482.121,172.206Z" style="fill:white;fill-rule:nonzero;"/>
    </g>
    <g transform="matrix(16.6667,0,0,16.6667,0,8591.72)">
        <path d="M508.132,163.249C507.815,162.687 507.401,162.255 506.89,161.953C506.379,161.651 505.801,161.501 505.157,161.501C504.717,161.501 504.293,161.57 503.884,161.708C503.475,161.846 503.11,162.045 502.787,162.306C502.465,162.567 502.212,162.884 502.028,163.257C501.844,163.63 501.752,164.042 501.752,164.491C501.752,164.88 501.819,165.225 501.952,165.527C502.084,165.828 502.266,166.094 502.496,166.324C502.726,166.554 502.984,166.754 503.271,166.922C503.557,167.091 503.889,167.257 504.267,167.421L505.065,167.758C505.351,167.881 505.609,168.004 505.84,168.126C506.07,168.249 506.266,168.387 506.43,168.54C506.849,168.919 507.059,169.389 507.059,169.951C507.059,170.565 506.857,171.094 506.453,171.539C506.049,171.984 505.54,172.206 504.927,172.206C504.303,172.206 503.774,171.999 503.34,171.585C502.905,171.171 502.688,170.647 502.688,170.013L501.231,170.32C501.292,170.78 501.425,171.207 501.629,171.6C501.834,171.994 502.095,172.339 502.412,172.635C502.729,172.932 503.092,173.159 503.501,173.318C503.91,173.476 504.344,173.556 504.804,173.556C505.316,173.556 505.796,173.469 506.246,173.295C506.696,173.121 507.09,172.871 507.427,172.543C507.764,172.216 508.028,171.83 508.217,171.385C508.406,170.941 508.501,170.463 508.501,169.951C508.501,169.481 508.432,169.064 508.293,168.701C508.155,168.338 507.959,168.022 507.703,167.751C507.447,167.48 507.148,167.242 506.806,167.037C506.463,166.833 506.072,166.644 505.632,166.47L504.804,166.148C504.344,165.974 503.961,165.757 503.654,165.496C503.347,165.235 503.194,164.9 503.194,164.491C503.194,164.011 503.393,163.617 503.792,163.31C504.191,163.004 504.636,162.85 505.126,162.85C505.556,162.85 505.919,162.94 506.215,163.119C506.512,163.298 506.767,163.571 506.982,163.939L508.132,163.249Z" style="fill:white;fill-rule:nonzero;"/>
    </g>
    <g transform="matrix(16.6667,0,0,16.6667,0,8595.8)">
        <path d="M522.151,161.501L522.151,168.817C522.151,169.451 522.248,170.041 522.442,170.588C522.636,171.135 522.917,171.613 523.286,172.022C523.654,172.431 524.098,172.748 524.62,172.973C525.141,173.198 525.729,173.311 526.384,173.311C527.038,173.311 527.629,173.198 528.155,172.973C528.682,172.748 529.126,172.434 529.489,172.03C529.852,171.626 530.131,171.148 530.325,170.596C530.52,170.044 530.617,169.451 530.617,168.817L530.617,161.501L529.175,161.501L529.175,168.326C529.175,168.837 529.132,169.305 529.045,169.729C528.958,170.154 528.81,170.535 528.6,170.872C528.39,171.209 528.101,171.475 527.733,171.67C527.365,171.864 526.915,171.961 526.384,171.961C525.852,171.961 525.402,171.864 525.034,171.67C524.666,171.475 524.377,171.209 524.167,170.872C523.958,170.535 523.81,170.154 523.723,169.729C523.636,169.305 523.592,168.837 523.592,168.326L523.592,161.501L522.151,161.501Z" style="fill:white;fill-rule:nonzero;"/>
    </g>
    <g transform="matrix(16.6667,0,0,16.6667,0,6824.38)">
        <path d="M210.683,246.456L173.646,246.456L173.646,245.385L174.882,245.385C175.761,245.33 176.653,245.193 177.559,244.974C178.465,244.754 178.918,244.15 178.918,243.161C178.918,242.887 178.891,242.598 178.836,242.296C178.781,241.994 178.644,241.623 178.424,241.184L171.999,227.674L152.146,227.674L147.944,238.795C147.395,240.223 147.12,241.404 147.12,242.337C147.12,243.601 147.519,244.424 148.315,244.809C149.111,245.193 149.894,245.385 150.663,245.385L153.134,245.385L153.134,246.456L138.388,246.456L138.388,245.385L139.377,245.385C140.311,245.44 141.134,245.111 141.848,244.397C142.562,243.683 143.139,242.804 143.578,241.761L158.077,206.338L158.571,205.185C158.736,204.801 158.901,204.389 159.065,203.949C159.45,202.906 159.642,202 159.642,201.231C159.642,199.803 159.134,198.581 158.118,197.565C157.102,196.549 155.715,195.959 153.958,195.794L153.381,195.712L153.381,194.641L164.337,194.641L187.156,241.431C187.65,242.475 188.145,243.271 188.639,243.82C189.133,244.369 189.573,244.768 189.957,245.015C190.341,245.262 190.657,245.385 190.904,245.385L192.807,245.385C193.356,245.385 193.946,245.303 194.578,245.138C195.21,244.974 195.786,244.685 196.308,244.273C196.83,243.861 197.269,243.34 197.626,242.708C197.983,242.077 198.161,241.294 198.161,240.36L198.161,199.336C198.161,198.787 197.983,198.293 197.626,197.853C197.269,197.414 196.83,197.03 196.308,196.7C195.786,196.371 195.21,196.123 194.578,195.959C193.946,195.794 193.356,195.712 192.807,195.712L192.807,194.641L214.39,194.641C218.015,194.641 221.131,195.094 223.74,196C226.348,196.906 228.49,198.1 230.165,199.583C231.84,201.066 233.062,202.755 233.831,204.65C234.6,206.544 234.984,208.48 234.984,210.457C234.984,212.379 234.559,214.288 233.707,216.182C232.856,218.077 231.621,219.766 230,221.249C228.38,222.731 226.417,223.926 224.11,224.832C221.804,225.738 219.195,226.191 216.285,226.191L205.328,226.191L205.328,240.937C205.328,241.706 205.521,242.365 205.905,242.914C206.289,243.463 206.742,243.93 207.264,244.314C207.786,244.699 208.363,244.974 208.994,245.138C209.626,245.303 210.189,245.385 210.683,245.385L210.683,246.456ZM171.175,225.862L161.042,204.526L152.887,225.862L171.175,225.862ZM215.708,224.461C218.234,224.461 220.321,224.008 221.969,223.102C223.616,222.196 224.907,221.043 225.84,219.642C226.774,218.242 227.406,216.732 227.735,215.112C228.065,213.491 228.202,211.967 228.147,210.54C228.092,208.508 227.859,206.627 227.447,204.897C227.035,203.167 226.321,201.656 225.305,200.366C224.289,199.075 222.902,198.073 221.145,197.359C219.387,196.645 217.136,196.288 214.39,196.288L209.2,196.288C208.266,196.288 207.539,196.384 207.017,196.576C206.495,196.769 206.111,197.016 205.864,197.318C205.617,197.62 205.466,197.963 205.411,198.348C205.356,198.732 205.328,199.144 205.328,199.583L205.328,224.461L215.708,224.461Z" style="fill:white;"/>
    </g>
    <g transform="matrix(16.6667,0,0,16.6667,0,6824.38)">
        <path d="M280.78,246.456L235.082,246.456L235.082,245.385C235.632,245.385 236.222,245.303 236.854,245.138C237.485,244.974 238.062,244.685 238.583,244.273C239.105,243.861 239.545,243.34 239.901,242.708C240.258,242.077 240.437,241.294 240.437,240.36L240.437,200.242C240.437,198.65 239.847,197.496 238.666,196.782C237.485,196.068 236.291,195.712 235.082,195.712L235.082,194.641L252.958,194.641L252.958,195.712C251.531,195.712 250.295,196.041 249.251,196.7C248.208,197.359 247.686,198.54 247.686,200.242L247.604,240.196C247.604,241.239 247.81,242.255 248.222,243.244C248.634,244.232 249.251,244.726 250.075,244.726L256.418,244.726C260.043,244.726 262.954,244.452 265.15,243.903C267.347,243.353 269.104,242.461 270.423,241.225C271.312,240.392 272.051,239.389 272.674,238.218L285.723,206.338L286.217,205.185C286.382,204.801 286.547,204.389 286.711,203.949C287.096,202.906 287.288,202 287.288,201.231C287.288,199.803 286.78,198.581 285.764,197.565C284.748,196.549 283.361,195.959 281.604,195.794L281.027,195.712L281.027,194.641L291.984,194.641L314.802,241.431C315.297,242.475 315.791,243.271 316.285,243.82C316.779,244.369 317.219,244.768 317.603,245.015C317.988,245.262 318.303,245.385 318.551,245.385L320.404,245.385L320.404,246.456L301.292,246.456L301.292,245.385L302.528,245.385C303.407,245.33 304.299,245.193 305.205,244.974C306.111,244.754 306.565,244.15 306.565,243.161C306.565,242.887 306.537,242.598 306.482,242.296C306.427,241.994 306.29,241.623 306.07,241.184L299.645,227.674L279.792,227.674L275.59,238.795C275.041,240.223 274.767,241.404 274.767,242.337C274.767,243.601 275.165,244.424 275.961,244.809C276.757,245.193 277.54,245.385 278.309,245.385L280.78,245.385L280.78,246.456ZM298.821,225.862L288.689,204.526L280.533,225.862L298.821,225.862Z" style="fill:white;"/>
    </g>
    <g transform="matrix(16.6667,0,0,16.6667,0,6824.38)">
        <path d="M326.323,202.714L327.229,233.688C327.339,237.971 328.218,240.992 329.865,242.749C331.513,244.507 333.792,245.385 336.703,245.385L336.703,246.456L319.156,246.456L319.156,245.385C320.364,245.385 321.326,245.179 322.04,244.768C322.753,244.356 323.289,243.683 323.646,242.749C324.003,241.816 324.236,240.607 324.346,239.125C324.456,237.642 324.511,235.83 324.511,233.688L324.511,200.242L322.699,197.771C322.369,197.332 321.888,196.879 321.257,196.412C320.625,195.945 319.843,195.712 318.909,195.712L318.909,194.641L329.948,194.641L364.876,234.017L364.052,210.375C363.942,207.409 363.709,204.979 363.352,203.084C362.995,201.19 362.473,199.693 361.787,198.595C361.1,197.496 360.249,196.741 359.233,196.329C358.217,195.917 356.995,195.712 355.567,195.712L355.567,194.641L373.114,194.641L373.114,195.629C371.796,195.629 370.725,195.835 369.901,196.247C369.077,196.659 368.446,197.428 368.006,198.554C367.567,199.679 367.279,201.19 367.141,203.084C367.004,204.979 366.935,207.409 366.935,210.375L366.935,246.456L365.947,246.456L326.323,202.714Z" style="fill:white;fill-rule:nonzero;"/>
    </g>
    <g transform="matrix(16.6667,0,0,16.6667,0,6824.38)">
        <path d="M105.416,240.278C105.416,241.157 105.608,241.912 105.992,242.543C106.377,243.175 106.83,243.697 107.351,244.109C107.873,244.52 108.45,244.836 109.081,245.056C109.713,245.276 110.276,245.385 110.77,245.385L110.77,246.456L92.894,246.456L92.894,245.385C93.443,245.385 94.034,245.289 94.665,245.097C95.297,244.905 95.873,244.603 96.395,244.191C96.917,243.779 97.356,243.244 97.713,242.585C98.07,241.926 98.249,241.102 98.249,240.113L98.249,199.171C98.249,198.622 98.07,198.142 97.713,197.73C97.356,197.318 96.917,196.961 96.395,196.659C95.873,196.357 95.297,196.123 94.665,195.959C94.034,195.794 93.443,195.712 92.894,195.712L92.894,194.641L110.77,194.641L110.77,195.712C110.276,195.712 109.713,195.808 109.081,196C108.45,196.192 107.873,196.453 107.351,196.782C106.83,197.112 106.377,197.496 105.992,197.936C105.608,198.375 105.416,198.842 105.416,199.336L105.416,224.626L125.186,203.62C126.34,202.357 127.328,201.176 128.152,200.078C128.976,198.979 129.387,198.046 129.387,197.277C129.387,196.233 128.509,195.712 126.751,195.712L125.763,195.712L125.763,194.641L139.438,194.641L139.438,195.712L138.861,195.712C137.927,195.602 137.035,195.821 136.184,196.371C135.332,196.92 134.522,197.579 133.754,198.348L116.125,216.471L130.458,236.9C131.172,237.889 131.996,238.891 132.93,239.907C133.863,240.923 134.852,241.857 135.895,242.708C136.939,243.559 137.955,244.26 138.943,244.809C139.932,245.358 140.838,245.633 141.662,245.633L141.744,246.456L133.589,246.456C133.04,246.456 132.422,246.415 131.735,246.333C131.049,246.25 130.376,246.113 129.717,245.921C129.058,245.729 128.426,245.44 127.822,245.056C127.218,244.671 126.696,244.177 126.257,243.573L111.1,221.661L105.416,227.509L105.416,240.278Z" style="fill:white;fill-rule:nonzero;"/>
    </g>
    <g transform="matrix(16.6667,0,0,16.6667,0,6825.77)">
        <path d="M463.621,244.396L482.362,244.396C482.774,244.396 483.199,244.369 483.639,244.314C485.78,243.929 487.51,243.312 488.828,242.46C490.147,241.609 491.259,240.538 492.165,239.248C493.071,237.957 493.826,236.419 494.43,234.634C495.034,232.85 495.666,230.804 496.325,228.497L497.313,228.497L495.583,246.456L466.916,246.456L466.916,246.373L454.971,246.373L454.971,245.055C457.552,241.321 460.243,237.435 463.044,233.399C465.845,229.362 468.687,225.271 471.57,221.124C474.454,216.978 477.35,212.818 480.261,208.644C483.172,204.47 486.028,200.406 488.828,196.452L473.094,196.452C470.239,196.452 467.904,196.837 466.092,197.606C464.28,198.374 462.797,199.459 461.644,200.86C460.49,202.26 459.557,203.949 458.843,205.926C458.129,207.903 457.442,210.1 456.783,212.516L455.795,212.516L457.525,194.558L497.313,194.558L497.313,195.629L463.621,244.396Z" style="fill:white;fill-rule:nonzero;"/>
    </g>
    <g transform="matrix(16.6667,0,0,16.6667,0,6825.77)">
        <path d="M599.247,243.243C596.721,236.213 594.36,231.037 592.163,227.715C589.966,224.392 587.55,222.731 584.914,222.731L576.84,222.731L576.84,239.206C576.84,240.085 577.033,240.909 577.417,241.678C577.802,242.447 578.255,243.092 578.776,243.614C579.298,244.135 579.875,244.547 580.506,244.849C581.138,245.151 581.701,245.302 582.195,245.302L582.195,246.373L564.319,246.373L564.319,245.302C564.868,245.302 565.459,245.165 566.09,244.891C566.722,244.616 567.298,244.218 567.82,243.696C568.342,243.174 568.781,242.543 569.138,241.801C569.495,241.06 569.674,240.195 569.674,239.206L569.674,199.83C569.674,199.281 569.495,198.759 569.138,198.265C568.781,197.77 568.342,197.331 567.82,196.947C567.298,196.562 566.722,196.246 566.09,195.999C565.459,195.752 564.868,195.629 564.319,195.629L564.319,194.558L589.856,194.558C592.987,194.558 595.746,194.956 598.135,195.752C600.524,196.548 602.515,197.606 604.108,198.924C605.7,200.242 606.895,201.738 607.691,203.413C608.487,205.088 608.858,206.804 608.803,208.562C608.693,213.065 607.018,216.374 603.778,218.488C600.538,220.603 596.172,221.797 590.68,222.072C592.877,222.456 594.716,222.992 596.199,223.678C597.682,224.365 598.973,225.326 600.071,226.561C601.169,227.797 602.199,229.362 603.16,231.257C604.121,233.152 605.151,235.499 606.249,238.3C606.524,239.014 606.826,239.783 607.156,240.607C607.485,241.431 607.883,242.199 608.35,242.913C608.817,243.627 609.393,244.218 610.08,244.685C610.766,245.151 611.631,245.412 612.675,245.467L612.675,246.456L606.249,246.456C605.7,246.456 605.055,246.387 604.314,246.25C603.572,246.112 602.858,245.907 602.172,245.632C601.485,245.357 600.867,245.014 600.318,244.602C599.769,244.19 599.412,243.737 599.247,243.243ZM576.84,221.083L587.961,221.083C592.41,221.083 595.705,220.163 597.847,218.324C599.989,216.484 601.087,213.23 601.142,208.562C601.142,207.024 600.922,205.514 600.483,204.031C600.044,202.548 599.343,201.23 598.382,200.077C597.421,198.924 596.199,198.004 594.716,197.317C593.234,196.631 591.476,196.288 589.444,196.288L579.312,196.288C578.763,196.288 578.323,196.411 577.994,196.658C577.664,196.905 577.417,197.221 577.252,197.606C577.088,197.99 576.978,198.374 576.923,198.759C576.868,199.143 576.84,199.5 576.84,199.83L576.84,221.083Z" style="fill:white;fill-rule:nonzero;"/>
    </g>
    <g transform="matrix(16.6667,0,0,16.6667,0,6824.38)">
        <path d="M619.612,245.385C620.161,245.385 620.751,245.303 621.383,245.138C622.014,244.974 622.591,244.685 623.113,244.273C623.634,243.861 624.074,243.34 624.431,242.708C624.788,242.077 624.966,241.294 624.966,240.36L624.966,199.336C624.966,198.787 624.788,198.293 624.431,197.853C624.074,197.414 623.634,197.03 623.113,196.7C622.591,196.371 622.014,196.123 621.383,195.959C620.751,195.794 620.161,195.712 619.612,195.712L619.612,194.641L662.942,194.641L664.755,212.599L663.766,212.599C662.942,209.798 662.16,207.382 661.418,205.35C660.677,203.318 659.647,201.629 658.329,200.283C657.011,198.938 655.268,197.936 653.098,197.277C650.929,196.618 648.032,196.288 644.407,196.288L634.275,196.288C633.616,196.288 633.094,196.659 632.71,197.4C632.325,198.142 632.133,198.814 632.133,199.419L632.133,218.201L642.513,218.201C644.819,218.201 646.563,217.981 647.744,217.542C648.924,217.102 649.803,216.43 650.38,215.523C650.956,214.617 651.341,213.436 651.533,211.981C651.725,210.526 652.014,208.782 652.398,206.75L653.139,206.75L653.963,231.711L653.222,231.711C652.673,229.734 652.261,228.004 651.986,226.521C651.712,225.038 651.258,223.802 650.627,222.814C649.995,221.825 649.075,221.098 647.867,220.631C646.659,220.164 644.874,219.931 642.513,219.931L632.133,219.931L632.133,240.196C632.133,241.239 632.339,242.255 632.751,243.244C633.163,244.232 633.781,244.726 634.604,244.726L644.243,244.726C647.867,244.726 650.778,244.452 652.975,243.903C655.171,243.353 656.929,242.461 658.247,241.225C659.565,239.99 660.608,238.383 661.377,236.406C662.146,234.429 662.942,232.068 663.766,229.322L664.755,229.322L662.942,246.456L619.612,246.456L619.612,245.385Z" style="fill:white;fill-rule:nonzero;"/>
    </g>
    <g transform="matrix(16.6667,0,0,16.6667,0,6825.77)">
        <path d="M710.792,243.243C708.266,236.213 705.905,231.037 703.708,227.715C701.511,224.392 699.095,222.731 696.459,222.731L688.386,222.731L688.386,239.206C688.386,240.085 688.578,240.909 688.962,241.678C689.347,242.447 689.8,243.092 690.321,243.614C690.843,244.135 691.42,244.547 692.051,244.849C692.683,245.151 693.246,245.302 693.74,245.302L693.74,246.373L675.864,246.373L675.864,245.302C676.413,245.302 677.004,245.165 677.635,244.891C678.267,244.616 678.843,244.218 679.365,243.696C679.887,243.174 680.326,242.543 680.683,241.801C681.04,241.06 681.219,240.195 681.219,239.206L681.219,199.83C681.219,199.281 681.04,198.759 680.683,198.265C680.326,197.77 679.887,197.331 679.365,196.947C678.843,196.562 678.267,196.246 677.635,195.999C677.004,195.752 676.413,195.629 675.864,195.629L675.864,194.558L701.401,194.558C704.532,194.558 707.291,194.956 709.68,195.752C712.069,196.548 714.06,197.606 715.653,198.924C717.245,200.242 718.44,201.738 719.236,203.413C720.032,205.088 720.403,206.804 720.348,208.562C720.238,213.065 718.563,216.374 715.323,218.488C712.083,220.603 707.717,221.797 702.225,222.072C704.422,222.456 706.262,222.992 707.744,223.678C709.227,224.365 710.518,225.326 711.616,226.561C712.715,227.797 713.744,229.362 714.705,231.257C715.666,233.152 716.696,235.499 717.795,238.3C718.069,239.014 718.371,239.783 718.701,240.607C719.03,241.431 719.428,242.199 719.895,242.913C720.362,243.627 720.939,244.218 721.625,244.685C722.312,245.151 723.177,245.412 724.22,245.467L724.22,246.456L717.795,246.456C717.245,246.456 716.6,246.387 715.859,246.25C715.117,246.112 714.403,245.907 713.717,245.632C713.03,245.357 712.412,245.014 711.863,244.602C711.314,244.19 710.957,243.737 710.792,243.243ZM688.386,221.083L699.507,221.083C703.955,221.083 707.25,220.163 709.392,218.324C711.534,216.484 712.632,213.23 712.687,208.562C712.687,207.024 712.467,205.514 712.028,204.031C711.589,202.548 710.888,201.23 709.927,200.077C708.966,198.924 707.744,198.004 706.262,197.317C704.779,196.631 703.021,196.288 700.989,196.288L690.857,196.288C690.308,196.288 689.868,196.411 689.539,196.658C689.209,196.905 688.962,197.221 688.797,197.606C688.633,197.99 688.523,198.374 688.468,198.759C688.413,199.143 688.386,199.5 688.386,199.83L688.386,221.083Z" style="fill:white;fill-rule:nonzero;"/>
    </g>
    <g transform="matrix(16.6667,0,0,16.6667,0,6824.38)">
        <path d="M502.117,220.507C502.117,216.498 502.748,212.846 504.011,209.551C505.275,206.256 507.073,203.441 509.407,201.107C511.741,198.773 514.556,196.975 517.851,195.712C521.146,194.448 524.798,193.817 528.807,193.817C532.816,193.817 536.468,194.448 539.763,195.712C543.059,196.975 545.873,198.773 548.207,201.107C550.541,203.441 552.353,206.256 553.644,209.551C554.935,212.846 555.58,216.498 555.58,220.507C555.58,224.516 554.935,228.168 553.644,231.464C552.353,234.759 550.541,237.587 548.207,239.948C545.873,242.31 543.059,244.122 539.763,245.385C536.468,246.649 532.816,247.28 528.807,247.28C524.798,247.28 521.146,246.649 517.851,245.385C514.556,244.122 511.741,242.31 509.407,239.948C507.073,237.587 505.275,234.759 504.011,231.464C502.748,228.168 502.117,224.516 502.117,220.507ZM510.519,220.507C510.519,224.242 510.959,227.647 511.837,230.722C512.716,233.798 513.952,236.42 515.544,238.589C517.137,240.759 519.059,242.434 521.311,243.614C523.562,244.795 526.061,245.385 528.807,245.385C531.553,245.385 534.052,244.795 536.304,243.614C538.555,242.434 540.477,240.759 542.07,238.589C543.663,236.42 544.898,233.798 545.777,230.722C546.656,227.647 547.095,224.242 547.095,220.507C547.095,216.773 546.656,213.382 545.777,210.334C544.898,207.286 543.663,204.677 542.07,202.508C540.477,200.338 538.555,198.663 536.304,197.483C534.052,196.302 531.553,195.712 528.807,195.712C526.061,195.712 523.562,196.302 521.311,197.483C519.059,198.663 517.137,200.338 515.544,202.508C513.952,204.677 512.716,207.286 511.837,210.334C510.959,213.382 510.519,216.773 510.519,220.507Z" style="fill:white;fill-rule:nonzero;"/>
    </g>
    <g transform="matrix(16.6667,0,0,16.6667,0,8019.53)">
        <path d="M75.819,184.694L422.234,184.694" style="fill:none;fill-rule:nonzero;stroke:white;stroke-width:1px;"/>
    </g>
    <g transform="matrix(16.6667,0,0,16.6667,0,8019.53)">
        <path d="M438.473,184.694L738.222,184.694" style="fill:none;fill-rule:nonzero;stroke:white;stroke-width:1px;"/>
    </g>
</svg>
